<svg width="28" height="32" viewBox="0 0 28 32" fill="none" xmlns="http://www.w3.org/2000/svg">
<g clip-path="url(#clip0_22_112)">
<path d="M27.9529 9.3836C27.9526 8.84693 27.8397 8.37271 27.6112 7.96571C27.3867 7.56549 27.0506 7.23004 26.5998 6.96482C22.8783 4.78493 19.1532 2.61171 15.4329 0.429597C14.43 -0.158625 13.4575 -0.13718 12.462 0.459486C10.9807 1.34693 3.56453 5.66326 1.35461 6.9636C0.4445 7.49882 0.00164063 8.31793 0.00142188 9.3826C0 13.7665 0.00142188 18.1503 0 22.5343C0 23.0592 0.108391 23.5242 0.326812 23.925C0.551359 24.3374 0.892172 24.682 1.35341 24.9533C3.56344 26.2536 10.9806 30.5696 12.4615 31.4573C13.4575 32.0543 14.43 32.0756 15.4333 31.4872C19.1536 29.3049 22.879 27.1318 26.601 24.9519C27.0622 24.6808 27.403 24.3359 27.6276 23.9239C27.8457 23.523 27.9543 23.058 27.9543 22.533C27.9543 22.533 27.9543 13.7676 27.9529 9.3836Z" fill="#A179DC"/>
<path d="M14.0199 15.9157L0.326782 23.925C0.551329 24.3374 0.892142 24.682 1.35338 24.9533C3.56341 26.2536 10.9806 30.5696 12.4615 31.4573C13.4575 32.0543 14.4299 32.0756 15.4332 31.4872C19.1536 29.3049 22.8789 27.1318 26.601 24.9519C27.0622 24.6808 27.403 24.3359 27.6275 23.9239L14.0199 15.9157Z" fill="#280068"/>
<path d="M27.9528 9.38359C27.9526 8.84692 27.8396 8.3727 27.6112 7.9657L14.0199 15.9157L27.6276 23.9239C27.8457 23.523 27.9541 23.058 27.9543 22.533C27.9543 22.533 27.9543 13.7676 27.9528 9.38359Z" fill="#390091"/>
<path d="M22.082 12.9216V14.4186H23.5557V12.9216H24.2925V14.4186H25.7662V15.1672H24.2925V16.6643H25.7662V17.4128H24.2925V18.9099H23.5557V17.4128H22.082V18.9099H21.3451V17.4128H19.8715V16.6643H21.3451V15.1672H19.8715V14.4186H21.3451V12.9216H22.082ZM23.5557 15.1672H22.082V16.6643H23.5557V15.1672Z" fill="white"/>
<path d="M14.05 5.40286C17.8938 5.40286 21.2498 7.52356 23.0474 10.6758L23.0298 10.6454L18.5073 13.2908C17.6163 11.7582 15.9828 10.7239 14.109 10.7026L14.05 10.7022C11.1925 10.7022 8.87589 13.0555 8.87589 15.9584C8.87589 16.9076 9.12502 17.7975 9.55827 18.5661C10.4501 20.1478 12.1267 21.2146 14.05 21.2146C15.9851 21.2146 17.6713 20.1342 18.5586 18.5356L18.537 18.574L23.0527 21.2315C21.2749 24.357 17.9649 26.4712 14.1657 26.5133L14.05 26.514C10.194 26.514 6.82848 24.3802 5.03546 21.2114C4.16014 19.6644 3.6593 17.8709 3.6593 15.9584C3.6593 10.1288 8.31127 5.40286 14.05 5.40286Z" fill="white"/>
</g>
<defs>
<clipPath id="clip0_22_112">
<rect width="28" height="32" fill="white"/>
</clipPath>
</defs>
</svg>
