<svg width="24" height="21" viewBox="0 0 24 21" fill="none" xmlns="http://www.w3.org/2000/svg">
  <g clip-path="url(#clip0_59_269)">
  <path d="M9.52849 11.6087C9.61519 10.0645 10.3726 8.70408 11.5153 7.73969C12.6359 6.79245 14.1442 6.2135 15.7899 6.2135C17.434 6.2135 18.9423 6.79245 20.0637 7.73969C21.2056 8.70408 21.963 10.0645 22.0505 11.6071C22.1372 13.1937 21.4984 14.6676 20.3778 15.7602C19.2351 16.8716 17.6098 17.5689 15.7899 17.5689C13.97 17.5689 12.3414 16.8716 11.1996 15.7602C10.0782 14.6676 9.44097 13.1937 9.52849 11.6087Z" fill="white"/>
  <path d="M12.5725 11.7483C12.6169 10.956 13.0056 10.2579 13.5919 9.76308C14.1669 9.27704 14.9408 8.97998 15.7852 8.97998C16.6288 8.97998 17.4027 9.27704 17.9781 9.76308C18.564 10.2579 18.9527 10.956 18.9976 11.7474C19.0421 12.5616 18.7143 13.3178 18.1393 13.8785C17.553 14.4487 16.719 14.8065 15.7852 14.8065C14.8514 14.8065 14.0158 14.4487 13.4299 13.8785C12.8545 13.3178 12.5275 12.5615 12.5725 11.7483Z" fill="#265787"/>
  <path d="M7.4564 13.353C7.46185 13.6631 7.5609 14.2656 7.70947 14.7361C8.02172 15.7321 8.55138 16.6534 9.28836 17.4654C10.0447 18.3001 10.976 18.9705 12.0516 19.4465C13.1823 19.9463 14.4074 20.2011 15.6799 20.199C16.9503 20.1973 18.1754 19.9375 19.3061 19.4339C20.3818 18.9533 21.3122 18.28 22.0673 17.4449C22.8038 16.6295 23.3327 15.7065 23.6457 14.7105C23.8031 14.2073 23.9026 13.6966 23.9425 13.1841C23.9815 12.6793 23.9651 12.1735 23.8934 11.6682C23.7532 10.6836 23.412 9.75969 22.8865 8.91751C22.406 8.14363 21.7865 7.46612 21.0499 6.89587L21.0516 6.89462L13.6184 1.19669C13.6117 1.19166 13.6062 1.18622 13.5991 1.18161C13.1114 0.80787 12.2913 0.809129 11.7549 1.18371C11.2127 1.56248 11.1506 2.18887 11.6332 2.58398L11.6311 2.58608L14.7314 5.10299L5.28195 5.11304H5.26936C4.48831 5.11388 3.73747 5.62547 3.5889 6.27198C3.43613 6.93064 3.96662 7.47701 4.77873 7.47994L4.77748 7.48288L9.56704 7.47366L1.02036 14.023C1.00945 14.0309 0.997693 14.0393 0.98762 14.0473C0.181385 14.6636 -0.0792405 15.6885 0.428591 16.3371C0.943978 16.9966 2.0398 16.9978 2.85443 16.3409L7.51893 12.5297C7.51893 12.5297 7.45094 13.0442 7.4564 13.353ZM19.4425 15.0759C18.4814 16.0534 17.1358 16.6078 15.6799 16.6107C14.2219 16.6132 12.8763 16.0639 11.9152 15.0881C11.4456 14.6125 11.1006 14.0653 10.8878 13.4825C10.6792 12.9097 10.5982 12.3017 10.652 11.6883C10.7027 11.0887 10.8815 10.5168 11.1669 9.99936C11.4473 9.4907 11.8334 9.03107 12.3102 8.64224C13.2444 7.88218 14.4338 7.47072 15.6778 7.46905C16.9231 7.46737 18.1116 7.87506 19.0467 8.6326C19.5226 9.01975 19.9084 9.47771 20.1887 9.98554C20.4754 10.5026 20.6529 11.0724 20.7058 11.6737C20.7587 12.2862 20.6777 12.8934 20.4691 13.4666C20.2559 14.0511 19.9121 14.5982 19.4425 15.0759Z" fill="#EA7600"/>
  </g>
  <defs>
  <clipPath id="clip0_59_269">
  <rect width="23.8" height="19.3333" fill="white" transform="translate(0.199951 0.888794)"/>
  </clipPath>
  </defs>
</svg>
