<svg width="24" height="28" viewBox="0 0 24 28" fill="none" xmlns="http://www.w3.org/2000/svg">
  <g clip-path="url(#clip0_59_468)">
  <path d="M23.0248 1.72839L20.9294 25.343L11.5107 27.9699L2.11792 25.3467L0.0247803 1.72839H23.0248Z" fill="#264DE4"/>
  <path d="M19.1356 23.8393L20.9262 3.65955H11.5248V25.9621L19.1356 23.8393Z" fill="#2965F1"/>
  <path d="M4.82324 12.4193L5.08131 15.3159H11.5248V12.4193H4.82324Z" fill="#EBEBEB"/>
  <path d="M11.5248 6.55627H11.5148H4.30469L4.56643 9.453H11.5248V6.55627Z" fill="#EBEBEB"/>
  <path d="M11.5248 22.956V19.9423L11.5121 19.9456L8.30538 19.0745L8.10038 16.7643H6.54215H5.20996L5.61336 21.3125L11.5115 22.9597L11.5248 22.956Z" fill="#EBEBEB"/>
  <path d="M15.0604 15.3159L14.7262 19.0727L11.5148 19.9447V22.9584L17.4176 21.3125L17.4609 20.8231L18.1375 13.1971L18.2078 12.4193L18.7276 6.55627H11.5148V9.453H15.5721L15.3101 12.4193H11.5148V15.3159H15.0604Z" fill="white"/>
  </g>
  <defs>
  <clipPath id="clip0_59_468">
  <rect width="23" height="27.14" fill="white" transform="translate(0.0247803 0.829956)"/>
  </clipPath>
  </defs>
</svg>
