<svg width="26" height="26" viewBox="0 0 26 26" fill="none" xmlns="http://www.w3.org/2000/svg">
  <g clip-path="url(#clip0_61_348)">
  <path d="M8.9992 26C11.2068 26 12.9984 24.0587 12.9984 21.6667V17.3334H8.9992C6.79164 17.3334 5 19.2747 5 21.6667C5 24.0587 6.79164 26 8.9992 26Z" fill="#0ACF83"/>
  <path d="M5 13C5 10.608 6.79164 8.66663 8.9992 8.66663H12.9984V17.3333H8.9992C6.79164 17.3333 5 15.392 5 13Z" fill="#A259FF"/>
  <path d="M5.00037 4.33333C5.00037 1.94133 6.79201 0 8.99957 0H12.9988V8.66667H8.99957C6.79201 8.66667 5.00037 6.72533 5.00037 4.33333Z" fill="#F24E1E"/>
  <path d="M12.9984 0H16.9976C19.2052 0 20.9968 1.94133 20.9968 4.33333C20.9968 6.72533 19.2052 8.66667 16.9976 8.66667H12.9984V0Z" fill="#FF7262"/>
  <path d="M20.9968 13C20.9968 15.392 19.2052 17.3333 16.9976 17.3333C14.7901 17.3333 12.9984 15.392 12.9984 13C12.9984 10.608 14.7901 8.66663 16.9976 8.66663C19.2052 8.66663 20.9968 10.608 20.9968 13Z" fill="#1ABCFE"/>
  </g>
  <defs>
  <clipPath id="clip0_61_348">
  <rect width="26" height="26" fill="white"/>
  </clipPath>
  </defs>
</svg>
