<svg width="23" height="23" viewBox="0 0 23 23" fill="none" xmlns="http://www.w3.org/2000/svg">
  <g clip-path="url(#clip0_59_203)">
  <path d="M22.1199 0.453247H0.359863V22.2132H22.1199V0.453247Z" fill="#F7DF1E"/>
  <path d="M14.9771 17.4534C15.4154 18.169 15.9857 18.6951 16.9942 18.6951C17.8415 18.6951 18.3827 18.2716 18.3827 17.6865C18.3827 16.9853 17.8266 16.737 16.8941 16.3291L16.3829 16.1098C14.9073 15.4811 13.9271 14.6936 13.9271 13.0288C13.9271 11.4953 15.0956 10.3278 16.9217 10.3278C18.2218 10.3278 19.1564 10.7803 19.8299 11.965L18.2377 12.9874C17.8871 12.3588 17.5089 12.1111 16.9217 12.1111C16.3228 12.1111 15.9432 12.491 15.9432 12.9874C15.9432 13.6008 16.3231 13.8491 17.2004 14.2291L17.7116 14.4481C19.449 15.1931 20.4299 15.9526 20.4299 17.6602C20.4299 19.5012 18.9837 20.5098 17.0415 20.5098C15.1426 20.5098 13.9157 19.6048 13.3154 18.4187L14.9771 17.4534ZM7.75382 17.6305C8.07504 18.2005 8.36725 18.6823 9.06978 18.6823C9.74158 18.6823 10.1654 18.4194 10.1654 17.3974V10.4446H12.2101V17.425C12.2101 19.5423 10.9688 20.506 9.15682 20.506C7.51964 20.506 6.57153 19.6587 6.08936 18.6382L7.75382 17.6305Z" fill="black"/>
  </g>
  <defs>
  <clipPath id="clip0_59_203">
  <rect width="21.76" height="21.76" fill="white" transform="translate(0.359863 0.453247)"/>
  </clipPath>
  </defs>
</svg>
