<svg width="86" height="79" viewBox="0 0 86 79" fill="none" xmlns="http://www.w3.org/2000/svg">
  <g clip-path="url(#clip0_59_29)">
  <path d="M0.226086 8.28578C4.86686 5.47303 9.49787 2.63815 14.1582 -0.142639C14.168 21.3882 14.1338 42.919 14.1753 64.4498C12.0639 65.7701 9.91576 67.029 7.79943 68.3345C5.27253 69.8516 2.76519 71.403 0.233417 72.9077C0.216311 51.3671 0.230973 29.8264 0.226086 8.28578Z" fill="#7DC6DD"/>
  <path d="M14.1582 -0.142629C34.4589 -0.17705 54.762 -0.147546 75.0651 -0.157381C77.5724 -0.30982 79.9258 1.844 79.9356 4.38383C79.982 7.7252 79.9405 11.069 79.9551 14.4129C79.9502 31.0877 79.9649 47.7602 79.9478 64.4351C58.0245 64.4596 36.0987 64.4301 14.1753 64.4498C14.1338 42.919 14.168 21.3882 14.1582 -0.142629ZM28.6426 14.2825C28.6255 26.2294 28.6402 38.1762 28.6353 50.123C31.2013 50.123 33.7673 50.123 36.3333 50.123C36.3357 42.2109 36.3333 34.2988 36.3333 26.3867C38.4985 34.2742 40.4755 42.2183 42.5796 50.123C45.368 50.1279 48.1588 50.1131 50.9472 50.1304C52.956 42.5625 54.8842 34.97 56.9125 27.4046C56.937 34.9774 56.9125 42.5502 56.9223 50.1205C59.7522 50.1254 62.5821 50.123 65.4121 50.123C65.4267 38.186 65.3925 26.249 65.4292 14.3121C61.7928 14.2555 58.154 14.3022 54.5176 14.2875C52.0445 23.81 49.5445 33.3252 47.0322 42.8354C44.6104 33.3301 42.2839 23.8002 39.8914 14.2875C36.1402 14.2825 32.3914 14.2924 28.6426 14.2825Z" fill="#37A5CC"/>
  <path d="M28.6426 14.2825C32.3914 14.2923 36.1402 14.2825 39.8914 14.2874C42.2839 23.8001 44.6104 33.33 47.0322 42.8354C49.5444 33.3251 52.0444 23.81 54.5176 14.2874C58.1539 14.3022 61.7928 14.2555 65.4291 14.312C65.3925 26.249 65.4267 38.186 65.412 50.1229C62.5821 50.1229 59.7522 50.1254 56.9223 50.1205C56.9125 42.5501 56.9369 34.9774 56.9125 27.4046C54.8841 34.97 52.956 42.5624 50.9472 50.1303C48.1588 50.1131 45.368 50.1279 42.5796 50.1229C40.4755 42.2182 38.4984 34.2742 36.3332 26.3867C36.3332 34.2988 36.3357 42.2108 36.3332 50.1229C33.7672 50.1229 31.2013 50.1229 28.6353 50.1229C28.6402 38.1761 28.6255 26.2293 28.6426 14.2825Z" fill="white"/>
  <path d="M79.9551 14.4128C82.0519 14.4104 84.1487 14.4104 86.2479 14.4128C86.2357 35.9043 86.2748 57.3982 86.2284 78.8897H12.604C11.7291 78.7668 10.8225 78.6315 10.0575 78.1546C8.69146 77.3555 7.7897 75.804 7.80192 74.2083C7.79214 72.2512 7.81169 70.2916 7.79947 68.3345C9.91581 67.0289 12.0639 65.7701 14.1754 64.4498C36.0987 64.4301 58.0245 64.4596 79.9478 64.435C79.9649 47.7601 79.9503 31.0877 79.9551 14.4128Z" fill="#36697F"/>
  </g>
  <defs>
  <clipPath id="clip0_59_29">
  <rect width="86" height="78.8897" fill="white"/>
  </clipPath>
  </defs>
</svg>
