<svg width="23" height="22" viewBox="0 0 23 22" fill="none" xmlns="http://www.w3.org/2000/svg">
  <g clip-path="url(#clip0_61_304)">
  <path d="M4.07292 0H18.9271C21.1765 0 23 1.78896 23 3.99573V18.0043C23 20.211 21.1765 22 18.9271 22H4.07292C1.82352 22 0 20.211 0 18.0043V3.99573C0 1.78896 1.82352 0 4.07292 0Z" fill="#1E3101"/>
  <path d="M4.97485 15.4277V5.75534C4.97485 5.68483 5.00571 5.64939 5.06743 5.64939C5.23188 5.64939 5.42728 5.64685 5.65374 5.64177C5.87981 5.63679 6.12418 5.6318 6.38657 5.62663C6.64887 5.62165 6.9266 5.61657 7.21975 5.6115C7.5129 5.60651 7.80347 5.60398 8.09155 5.60388C8.87316 5.60388 9.53144 5.69978 10.0665 5.89148C10.5491 6.05159 10.9892 6.3154 11.3548 6.66345C11.6647 6.96516 11.9042 7.32928 12.0568 7.73064C12.2012 8.12119 12.2743 8.53374 12.2728 8.9491C12.2728 9.75652 12.0825 10.4225 11.702 10.9472C11.3188 11.4739 10.7803 11.8728 10.1591 12.09C9.46656 12.3347 8.73487 12.4552 7.99897 12.4458C7.77261 12.4458 7.61324 12.4432 7.52067 12.4382C7.42809 12.4332 7.28923 12.4307 7.10408 12.4306V15.4125C7.11366 15.4783 7.06709 15.5393 7 15.5487C6.9885 15.5503 6.97681 15.5503 6.96531 15.5487H5.08286C5.01079 15.5488 4.97485 15.5087 4.97485 15.4277ZM7.10408 7.4658V10.5991C7.23767 10.6093 7.3611 10.6143 7.47438 10.6142H7.98354C8.357 10.6196 8.72903 10.5685 9.08668 10.4629C9.39239 10.3738 9.66551 10.2004 9.87357 9.96336C10.0741 9.73133 10.1745 9.40847 10.1745 8.99461C10.1826 8.70184 10.105 8.41283 9.95081 8.16209C9.78866 7.91962 9.55435 7.73196 9.27969 7.62478C8.92108 7.48798 8.53794 7.42368 8.15336 7.43562C7.90649 7.43562 7.6879 7.43816 7.49757 7.44314C7.30705 7.44831 7.17595 7.45592 7.10408 7.4658Z" fill="#99E83F"/>
  <path d="M17.997 14.0503V15.2915C17.997 15.4026 17.9559 15.4683 17.8736 15.4883C17.6711 15.5505 17.4649 15.6011 17.2564 15.6397C17.012 15.6823 16.764 15.7026 16.5158 15.7002C15.847 15.7002 15.3225 15.5286 14.942 15.1855C14.5614 14.8426 14.3711 14.2927 14.3712 13.5356V9.78173H13.4608C13.3784 9.78173 13.3374 9.73632 13.3374 9.6455V8.14696C13.3374 8.06629 13.3837 8.02596 13.4763 8.02587H14.3866C14.3967 7.85438 14.4096 7.65506 14.4252 7.42801C14.4406 7.20096 14.4611 6.97391 14.4869 6.74686C14.5125 6.51981 14.5356 6.33563 14.5563 6.19441C14.5665 6.16414 14.5822 6.13593 14.6026 6.11121C14.6225 6.08658 14.6493 6.06815 14.6797 6.05828L16.5158 5.83123C16.5561 5.82474 16.5821 5.82474 16.6006 5.83536C16.621 5.84552 16.6238 5.87165 16.6238 5.92205C16.6031 6.15427 16.5877 6.4697 16.5775 6.86805C16.5672 7.26677 16.5568 7.65281 16.5467 8.02596H17.9816C18.0433 8.02596 18.0742 8.06629 18.0742 8.14705V9.67587C18.082 9.72588 18.0478 9.77289 17.997 9.78182H16.5312V13.0211C16.5312 13.3643 16.5904 13.609 16.7087 13.7552C16.8268 13.9016 17.0454 13.9748 17.3644 13.9747C17.457 13.9747 17.5442 13.9724 17.6267 13.9671C17.7089 13.9621 17.7913 13.9546 17.8736 13.9444C17.9016 13.9342 17.9328 13.9369 17.9584 13.952C17.984 13.9671 17.997 13.9999 17.997 14.0503Z" fill="#99E83F"/>
  </g>
  <defs>
  <clipPath id="clip0_61_304">
  <rect width="23" height="22" fill="white"/>
  </clipPath>
  </defs>
</svg>
